<?xml version="1.0" encoding="UTF-8"?>
<svg id="Layer_1" data-name="Layer 1" xmlns="http://www.w3.org/2000/svg" viewBox="0 0 1080 1080">
  <defs>
    <style>
      .cls-1 {
        fill: #fff;
      }

      .cls-2 {
        fill: #383838;
      }

      .cls-3 {
        fill: #c74b1e;
      }

      .cls-4 {
        fill: #ffc22a;
      }

      .cls-5 {
        fill: #f15a24;
      }
    </style>
  </defs>
  <rect class="cls-4" width="1080" height="1080"/>
  <g>
    <path class="cls-3" d="M492.71,360.17v78.06h-60.84c0-43.12,27.23-78.06,60.84-78.06Z"/>
    <path class="cls-5" d="M533.51,438.23v41.17h-57.05c-27.32,0-49.47,22.15-49.47,49.47v140.67c0,27.32,22.15,49.47,49.47,49.47h-63.47c-22.09,0-40-17.91-40-40v-318.84c29.87,0,54.71,27.61,59.86,64.04.64,4.55.98,9.23.98,14.02h99.68Z"/>
    <path class="cls-1" d="M575.85,479.4c-18.06,30.77-50.81,51.89-88.63,53.72v185.89h-10.76c-27.32,0-49.47-22.15-49.47-49.47v-140.67c0-27.32,22.15-49.47,49.47-49.47h99.39Z"/>
    <path class="cls-2" d="M589.9,438.23c-1.89,14.87-6.78,28.8-14.05,41.17h-42.34v-41.17h56.39Z"/>
    <path class="cls-3" d="M426.99,625.29h121.27c37.43,0,67.81,30.39,67.81,67.81v25.91h-140.36c-26.89,0-48.73-21.83-48.73-48.73v-44.99h0Z"/>
    <path class="cls-5" d="M707.01,588.15v82.96c0,26.91-21.81,48.72-48.72,48.72h-45v-121.27c0-3.54.27-7.01.79-10.41h92.93Z"/>
    <path class="cls-2" d="M707.01,530.75v57.4h-92.93c5.01-32.51,33.11-57.4,67.03-57.4h25.9Z"/>
  </g>
</svg>